<?xml version="1.0" encoding="UTF-8"?>
<svg version="1.1" xmlns="http://www.w3.org/2000/svg" width="401" height="410">
<path d="M0 0 C132.33 0 264.66 0 401 0 C401 135.3 401 270.6 401 410 C268.67 410 136.34 410 0 410 C0 274.7 0 139.4 0 0 Z " fill="#4DB2E6" transform="translate(0,0)"/>
<path d="M0 0 C66.66 0 133.32 0 202 0 C199.03 6.27 196.06 12.54 193 19 C191.0267155 23.49075428 189.0789849 27.9762693 187.1875 32.5 C186.73697266 33.5621875 186.28644531 34.624375 185.82226562 35.71875 C184.52382535 38.80325441 183.25249646 41.8965754 182 45 C181.58830566 46.01835938 181.17661133 47.03671875 180.75244141 48.0859375 C180.18855713 49.54386719 180.18855713 49.54386719 179.61328125 51.03125 C179.27723877 51.89298828 178.94119629 52.75472656 178.5949707 53.64257812 C177.92778477 56.28613468 177.94738503 57.50064766 179 60 C180.33665542 61.6258068 180.33665542 61.6258068 182.0625 63.06640625 C182.68987061 63.62811523 183.31724121 64.18982422 183.96362305 64.76855469 C184.97162964 65.65655762 184.97162964 65.65655762 186 66.5625 C192.30483356 72.30346256 197.96609884 78.08278617 203 85 C203.45439453 85.62293945 203.90878906 86.24587891 204.37695312 86.88769531 C215.81563357 102.76470434 224.71878638 120.11260625 230 139 C230.18788086 139.65887207 230.37576172 140.31774414 230.56933594 140.99658203 C233.64296298 151.98233669 234.73366894 162.61434703 235 174 C226.89094759 168.65272631 226.89094759 168.65272631 223.80859375 166.39453125 C204.75894762 152.4468773 181.3521785 141.89202975 158 138 C157.01 144.435 157.01 144.435 156 151 C157.0415625 151.21914062 158.083125 151.43828125 159.15625 151.6640625 C181.82028933 156.60181401 206.62979592 165.92316841 223 183 C202.55276508 199.01759131 179.1708925 208.99702446 154 215 C153.67 219.29 153.34 223.58 153 228 C181.99427368 221.45290594 209.27574789 211.30232527 232.49609375 192.1796875 C234 191 234 191 235 191 C233.56238209 228.27891965 219.31019794 263.18188932 193.54296875 290.28125 C191.79294363 292.1522446 190.11157794 294.08907813 188.4921875 296.07421875 C184.53484822 300.72006063 179.79064991 304.24971229 175 308 C174.08089844 308.73476563 173.16179687 309.46953125 172.21484375 310.2265625 C149.01510194 328.2885348 149.01510194 328.2885348 136.61328125 327.83984375 C129.62833436 325.59505514 126.48462842 320.13368937 123.25 314 C122.62037354 312.83488892 122.62037354 312.83488892 121.97802734 311.64624023 C104 277.95163566 104 277.95163566 104 270 C67.85778944 284.43522365 34.8853535 301.41317926 5.0234375 326.671875 C1.07830056 330 1.07830056 330 0 330 C0 221.1 0 112.2 0 0 Z " fill="#5BC2FE" transform="translate(0,0)"/>
<path d="M0 0 C1.27133789 0.00966797 1.27133789 0.00966797 2.56835938 0.01953125 C3.8899707 0.04466797 3.8899707 0.04466797 5.23828125 0.0703125 C6.57729492 0.08384766 6.57729492 0.08384766 7.94335938 0.09765625 C10.14610439 0.12121502 12.34830713 0.15410921 14.55078125 0.1953125 C13.98489183 7.54289254 11.84624228 14.11337725 9.48828125 21.0703125 C9.08488525 22.26760986 8.68148926 23.46490723 8.26586914 24.69848633 C4.90825178 34.48720704 1.04760615 43.88272291 -3.44921875 53.1953125 C-3.91811523 54.19232178 -3.91811523 54.19232178 -4.39648438 55.20947266 C-14.18806423 76.02418201 -26.89604204 96.07830771 -42.27734375 113.234375 C-46.06846909 117.68097528 -47.28540816 120.97218766 -46.9140625 126.859375 C-46.22274582 130.33338655 -44.76051747 132.55382825 -42.44921875 135.1953125 C-39.28911518 137.30204821 -38.2900935 137.51419307 -34.63671875 137.5703125 C-33.80527344 137.59867188 -32.97382813 137.62703125 -32.1171875 137.65625 C-27.20304031 136.80724653 -24.24023151 134.1759516 -21.16796875 130.3671875 C-20.41397906 129.23603391 -19.67532567 128.0945634 -18.94921875 126.9453125 C-18.5325293 126.30037842 -18.11583984 125.65544434 -17.68652344 124.9909668 C-16.25089821 122.73940881 -14.84615667 120.47107305 -13.44921875 118.1953125 C-12.92263672 117.33824707 -12.39605469 116.48118164 -11.85351562 115.59814453 C6.72479273 85.08517435 21.34594905 53.07919977 32.29199219 19.10400391 C34.15126416 13.33994908 36.01130616 7.69750853 38.55078125 2.1953125 C47.16915581 1.82733696 55.45528396 3.16559419 63.92578125 4.5703125 C64.70557343 4.69858429 65.4853656 4.82685608 66.28878784 4.95901489 C90.55249837 9.01819897 114.83102787 15.70328143 137.55078125 25.1953125 C138.54287598 25.6092627 139.5349707 26.02321289 140.55712891 26.44970703 C143.87532344 27.84739035 147.18364061 29.26589153 150.48828125 30.6953125 C151.50744629 31.13415771 152.52661133 31.57300293 153.57666016 32.02514648 C160.99524854 35.3035905 167.44533063 39.05046631 174.55078125 43.1953125 C174.55078125 81.8053125 174.55078125 120.4153125 174.55078125 160.1953125 C42.22078125 160.1953125 -90.10921875 160.1953125 -226.44921875 160.1953125 C-226.44921875 133.7953125 -226.44921875 107.3953125 -226.44921875 80.1953125 C-214.71257714 69.63233505 -214.71257714 69.63233505 -208.88671875 65.3203125 C-207.87544922 64.56850708 -207.87544922 64.56850708 -206.84375 63.80151367 C-147.48839345 20.1953125 -147.48839345 20.1953125 -122.44921875 20.1953125 C-121.99933594 21.38382812 -121.54945312 22.57234375 -121.0859375 23.796875 C-111.21486526 53.15521021 -111.21486526 53.15521021 -92.44921875 76.1953125 C-85.67207363 78.0018213 -80.07906434 76.37500166 -74.14257812 73.06958008 C-58.29641684 63.59257378 -41.97950215 51.79352053 -30.44921875 37.1953125 C-29.61003906 36.18082031 -28.77085937 35.16632813 -27.90625 34.12109375 C-20.49981429 25.06260242 -13.89257891 15.49523604 -8.88671875 4.8828125 C-6.66155485 0.72272348 -4.47398743 -0.06005352 0 0 Z " fill="#1AADEE" transform="translate(226.44921875,249.8046875)"/>
<path d="M0 0 C2.11169075 0.99910722 4.14257362 2.08576136 6.17871094 3.23095703 C6.91935791 3.63701172 7.66000488 4.04306641 8.4230957 4.46142578 C18.37375959 10.01588272 27.44394851 16.38782809 35.78808594 24.18017578 C37.8478047 26.10139621 39.9607064 27.91914515 42.11621094 29.73095703 C62.91082665 47.98354557 77.4722518 74.94574951 85.05371094 101.29345703 C85.24594238 101.96103027 85.43817383 102.62860352 85.63623047 103.31640625 C88.70327002 114.29085968 89.78768737 124.9209496 90.05371094 136.29345703 C81.94465853 130.94618334 81.94465853 130.94618334 78.86230469 128.68798828 C65.20375696 118.68755594 50.38449534 111.68818246 34.45068359 106.13671875 C32.35921408 105.4009339 30.29079906 104.62434347 28.22167969 103.82861328 C17.9681079 100.17376483 7.46573123 98.96341648 -3.30151367 97.81201172 C-16.12271329 96.35243139 -25.86240324 92.49912695 -34.33691406 82.44970703 C-38.92255273 76.30584164 -41.07526284 70.31327989 -41.19628906 62.66845703 C-41.22207031 61.70681641 -41.24785156 60.74517578 -41.27441406 59.75439453 C-40.42193444 50.76276423 -36.53111546 42.64444845 -32.75878906 34.54345703 C-32.27192627 33.49230713 -31.78506348 32.44115723 -31.28344727 31.3581543 C-14.17674574 -5.14645035 -14.17674574 -5.14645035 0 0 Z " fill="#FDFEFE" transform="translate(144.9462890625,37.70654296875)"/>
<path d="M0 0 C-1.43761791 37.27891965 -15.68980206 72.18188932 -41.45703125 99.28125 C-43.20705637 101.1522446 -44.88842206 103.08907813 -46.5078125 105.07421875 C-50.46515178 109.72006063 -55.20935009 113.24971229 -60 117 C-60.91910156 117.73476563 -61.83820313 118.46953125 -62.78515625 119.2265625 C-85.98489806 137.2885348 -85.98489806 137.2885348 -98.38671875 136.83984375 C-105.37166564 134.59505514 -108.51537158 129.13368937 -111.75 123 C-112.16975098 122.22325928 -112.58950195 121.44651855 -113.02197266 120.64624023 C-118.02741567 111.26498723 -122.61554104 101.68482037 -127 92 C-127.75023438 90.37578125 -127.75023438 90.37578125 -128.515625 88.71875 C-132.00098891 80.37351247 -132.86335617 70.62603603 -129.375 62.125 C-123.86005953 51.69498977 -116.32546583 43.7788541 -105 40 C-100.38090661 39.10197195 -95.73711061 38.58430284 -91.0625 38.0625 C-79.64904593 36.63179841 -68.88952558 34.70120764 -58 31 C-57.32759277 30.77586426 -56.65518555 30.55172852 -55.96240234 30.32080078 C-36.74966703 23.81866418 -18.19342826 14.10047033 -2.50390625 1.1796875 C-1 0 -1 0 0 0 Z " fill="#FDFEFE" transform="translate(235,191)"/>
<path d="M0 0 C1.11246094 -0.00773438 2.22492188 -0.01546875 3.37109375 -0.0234375 C33.38383276 0.04644082 71.15872922 11.67073267 93.203125 32.984375 C93.91984375 33.73203125 94.6365625 34.4796875 95.375 35.25 C65.68944107 58.50454529 25.51347877 73.40261373 -12.625 69.25 C-17.13996125 68.13898305 -20.86252345 65.94579506 -24.625 63.25 C-25.53378906 62.67572266 -25.53378906 62.67572266 -26.4609375 62.08984375 C-32.72452021 57.65446412 -36.6822138 49.48643299 -38.625 42.25 C-39.41423979 33.3939954 -39.57895502 24.95959249 -34.625 17.25 C-34.00625 16.22519531 -34.00625 16.22519531 -33.375 15.1796875 C-25.12867954 2.85706091 -14.03416556 -0.09557888 0 0 Z " fill="#FEFEFE" transform="translate(127.625,147.75)"/>
<path d="M0 0 C0.58297852 0.21366211 1.16595703 0.42732422 1.76660156 0.64746094 C6.19222334 2.2076246 10.00145497 3.3904895 14.75 3.25 C15.63171875 3.23453125 16.5134375 3.2190625 17.421875 3.203125 C20.01443159 2.99886297 22.46374131 2.56564043 25 2 C24.46489911 8.97595694 23.35977775 15.63308855 21.75 22.4375 C21.5245752 23.40067139 21.29915039 24.36384277 21.06689453 25.35620117 C20.38625816 28.23952504 19.6937396 31.11980571 19 34 C18.72978027 35.15387207 18.72978027 35.15387207 18.45410156 36.33105469 C8.04583096 80.54123288 -10.56868918 123.75408099 -35 162 C-35.69464355 163.10045654 -35.69464355 163.10045654 -36.40332031 164.22314453 C-37.73472308 166.32439647 -39.08131062 168.41467654 -40.4375 170.5 C-41.02108276 171.40866821 -41.02108276 171.40866821 -41.61645508 172.33569336 C-44.42012053 176.54391824 -47.44841187 179.72420594 -52 182 C-56.05831354 182.51093875 -60.19576657 182.91678528 -63.921875 181.0234375 C-67.48045047 178.15191373 -69.52697473 175.2100361 -70.4765625 170.7734375 C-70.89616386 163.99356296 -68.94306518 160.85764245 -64.53125 155.86328125 C-63.27828125 154.44595703 -63.27828125 154.44595703 -62 153 C-53.08703345 141.9258306 -45.34049757 130.15810888 -38 118 C-37.59152832 117.33033203 -37.18305664 116.66066406 -36.76220703 115.97070312 C-18.71876928 86.16309526 -8.02879182 51.83110349 -2.75 17.5625 C-2.47989232 15.8481928 -2.20906285 14.13399916 -1.9375 12.41992188 C-1.28337177 8.28120462 -0.63891319 4.14109217 0 0 Z " fill="#FCFEFE" transform="translate(249,206)"/>
<path d="M0 0 C3.48579191 1.98927391 6.19581306 4.39162612 8 8 C8.49893401 12.36210879 9.00145931 16.96102884 7.0234375 20.98828125 C4.23424617 24.43626931 1.23736472 26.65015752 -3.1484375 27.3359375 C-8.60274135 27.43162704 -11.75007465 26.74398185 -16 23 C-19.16284231 19.3100173 -19.51992627 15.92146146 -19.35546875 11.21484375 C-18.66993417 6.94343596 -16.32495925 4.19332183 -13.19140625 1.37109375 C-9.10902424 -1.18312387 -4.62394128 -0.82826593 0 0 Z " fill="#FCFDFE" transform="translate(269,169)"/>
</svg>
